<?xml version="1.0" standalone="no"?>
<!DOCTYPE svg PUBLIC "-//W3C//DTD SVG 1.1//EN" "http://www.w3.org/Graphics/SVG/1.1/DTD/svg11.dtd" >
<svg xmlns="http://www.w3.org/2000/svg">
<metadata>
This is a custom SVG webfont generated by Font Squirrel.
Copyright   : Copyright  2000 Adobe Systems Incorporated All Rights Reserved US Patent Des pending
Designer    : Robert Slimbach and Carol Twombly
Foundry URL : httpwwwadobecomtype
</metadata>
<defs>
<font id="MyriadProLightSemiExtended" horiz-adv-x="1085" >
<font-face units-per-em="2048" ascent="1536" descent="-512" />
<missing-glyph horiz-adv-x="491" />
<glyph unicode=" "  horiz-adv-x="491" />
<glyph unicode="&#x09;" horiz-adv-x="491" />
<glyph unicode="&#xa0;" horiz-adv-x="491" />
<glyph unicode="!" horiz-adv-x="440" d="M133 70q0 41 24.5 68.5t63.5 27.5t62.5 -27.5t23.5 -68.5q0 -39 -24.5 -67t-63.5 -28h-2q-37 0 -61.5 29t-22.5 66zM156 1380h125l-21 -1011h-84z" />
<glyph unicode="&#x22;" horiz-adv-x="618" d="M123 1423h123l-29 -454h-65zM373 1423h123l-29 -454h-66z" />
<glyph unicode="#" horiz-adv-x="1024" d="M82 426v80h197l40 330h-194v79h205l53 416h86l-51 -416h250l53 416h86l-51 -416h186v-79h-197l-40 -330h196v-80h-207l-53 -426h-88l53 426h-250l-53 -426h-88l53 426h-186zM367 506h249l41 330h-249z" />
<glyph unicode="$" d="M162 137l45 78q119 -94 285 -94q129 0 210.5 69.5t81.5 174.5q0 96 -64.5 161.5t-191.5 116.5q-182 74 -262 152.5t-80 197.5q0 121 84 206t224 104v219h86v-219q147 -4 262 -80l-45 -78q-115 78 -256 78q-131 0 -195.5 -65.5t-64.5 -151.5q0 -88 61 -145.5t213 -121.5 q164 -70 245 -153.5t81 -214.5q0 -113 -83 -210.5t-239 -119.5v-215h-86v215q-192 0 -311 96z" />
<glyph unicode="%" horiz-adv-x="1576" d="M61 936q0 203 91.5 311.5t216.5 108.5h2q131 0 208.5 -100.5t77.5 -294.5q0 -205 -85 -314.5t-218 -109.5q-123 0 -207 101t-86 298zM150 946q-4 -156 54 -248t154 -92q104 0 157.5 91t53.5 255q0 334 -209 334h-2q-92 0 -150 -92t-58 -248zM332 -25l825 1381h84 l-825 -1381h-84zM920 389q0 203 91 311.5t216 108.5h2q131 0 209 -100.5t78 -294.5q0 -205 -85 -314.5t-219 -109.5q-123 0 -206.5 101t-85.5 298zM1008 399q-4 -156 54 -248t155 -92q104 0 157 91.5t53 255.5q0 334 -208 333h-2q-92 0 -150.5 -92t-58.5 -248z" />
<glyph unicode="&#x26;" horiz-adv-x="1208" d="M61 362q0 260 295 408v6q-127 160 -127 297q0 133 91.5 232.5t242.5 99.5q123 0 203 -78t80 -199q0 -115 -80 -203.5t-270 -174.5v-7l436 -464q106 135 158 444h94q-66 -360 -195 -498q160 -156 238 -225h-129q-18 16 -72.5 69.5t-93.5 88.5q-207 -182 -459 -183 q-172 0 -292 109.5t-120 277.5zM160 377q0 -143 97 -232.5t241 -89.5h2q219 0 374 160q-184 178 -471 496q-243 -121 -243 -334zM324 1083q0 -123 120 -278q154 74 231 143.5t77 169.5q0 84 -51.5 146.5t-151.5 62.5h-2q-104 0 -163.5 -72t-59.5 -172z" />
<glyph unicode="'" horiz-adv-x="368" d="M123 1423h123l-29 -454h-65z" />
<glyph unicode="(" horiz-adv-x="552" d="M133 582q0 274 86 474.5t227 373.5h97q-154 -178 -234 -380t-80 -470q0 -256 81 -451t233 -383h-97q-313 367 -313 836z" />
<glyph unicode=")" horiz-adv-x="552" d="M10 -254q152 182 233 382t81 462t-80 458.5t-234 381.5h96q313 -367 314 -842q0 -274 -85 -472t-229 -370h-96z" />
<glyph unicode="*" horiz-adv-x="819" d="M61 1020v100l299 -22v4l-184 248l96 55l136 -272h4l131 272l94 -53l-188 -252v-4l309 24v-100l-307 29v-7l186 -243l-100 -56l-129 275h-5l-145 -275l-82 56l186 245v7z" />
<glyph unicode="+" horiz-adv-x="1220" d="M82 506v82h483v502h90v-502h484v-82h-484v-506h-90v506h-483z" />
<glyph unicode="," horiz-adv-x="358" d="M55 -258q25 66 58.5 203t48.5 231l131 21q-27 -109 -79 -253.5t-79 -191.5z" />
<glyph unicode="-" horiz-adv-x="614" d="M61 535v88h492v-88h-492z" />
<glyph unicode="." horiz-adv-x="358" d="M113 70q0 41 24.5 68.5t63.5 27.5t62.5 -27.5t23.5 -68.5q0 -39 -24.5 -67t-63.5 -28h-2q-37 0 -61.5 29t-22.5 66z" />
<glyph unicode="/" horiz-adv-x="765" d="M-49 -82l731 1487h104l-737 -1487h-98z" />
<glyph unicode="0" d="M84 657q0 340 139 519.5t336 179.5q203 0 322.5 -169t119.5 -497q0 -350 -124.5 -532.5t-348.5 -182.5h-2q-182 0 -309 173t-133 509zM188 676q-6 -285 91.5 -452t257.5 -167h2q178 0 268 165t90 454q0 281 -87 439.5t-267 158.5q-156 0 -255.5 -165t-99.5 -433z" />
<glyph unicode="1" d="M266 1188l248 143h96v-1331h-98v1233h-4l-217 -125z" />
<glyph unicode="2" d="M100 0v63l131 121q354 328 471 475.5t117 296.5q0 131 -72.5 221.5t-246.5 90.5q-168 0 -314 -127l-41 67q164 147 375 148q109 0 192 -38t126 -97.5t63.5 -119t20.5 -118.5q0 -78 -27 -154.5t-64.5 -141t-121.5 -156t-159 -161.5l-212 -198l-94 -84v-4h717v-84h-861z " />
<glyph unicode="3" d="M102 74l41 80q49 -35 137.5 -64t182.5 -29q111 0 189.5 34t114.5 87.5t49 98.5t13 88q-2 109 -68.5 182.5t-157.5 101t-202 27.5h-100v84h107q141 0 251.5 68.5t110.5 197.5q0 98 -66.5 169t-214.5 71q-160 0 -288 -101l-41 74q57 45 151.5 79t188.5 34 q193 0 283.5 -94.5t90.5 -219.5q0 -104 -68.5 -188t-193.5 -127v-4q141 -27 231.5 -122t90.5 -228q0 -160 -124 -279t-361 -119q-106 0 -200 30t-147 69z" />
<glyph unicode="4" d="M12 389v68l721 874h78v-858h221v-84h-221v-389h-96v389h-703zM133 473h582v571q0 102 4 150l-6 2q-41 -66 -97 -131l-483 -588v-4z" />
<glyph unicode="5" d="M98 70l41 80q129 -88 307 -89q158 0 263.5 99.5t103.5 240.5q-2 147 -103.5 242.5t-308.5 95.5q-109 0 -215 -16l84 608h625v-88h-547l-63 -428q88 10 143 10q133 0 246 -43q98 -37 168.5 -133t70.5 -227q0 -197 -138 -322t-337 -125q-209 1 -340 95z" />
<glyph unicode="6" d="M78 541q0 199 67.5 355.5t176.5 254.5q158 145 389 188q76 16 151 17l2 -92q-94 0 -166 -15q-219 -41 -357 -200.5t-157 -370.5h4q53 84 153.5 142.5t227.5 58.5q201 0 319 -123t118 -312q0 -182 -122 -325.5t-333 -143.5q-199 0 -336 146t-137 420zM180 510 q0 -195 98.5 -323t278.5 -128h2q154 0 248 111t94 270q0 166 -99.5 259.5t-256.5 93.5q-102 0 -194.5 -55.5t-143.5 -141.5q-27 -49 -27 -86z" />
<glyph unicode="7" d="M145 1247v84h840v-80l-653 -1251h-99l648 1243v4h-736z" />
<glyph unicode="8" d="M88 338q0 250 295 362v9q-240 90 -240 299q0 150 118 249t296 99h2q172 0 279.5 -92.5t107.5 -231.5q0 -219 -252 -319v-8q303 -98 303 -345q0 -174 -135 -279.5t-319 -105.5q-190 0 -322.5 98.5t-132.5 264.5zM193 356q-8 -121 88 -210t258 -89h2q162 0 258 83t96 202 q0 139 -94 213t-293 117q-154 -33 -234.5 -117t-80.5 -199zM242 1022q-2 -117 81 -184.5t248 -100.5q125 33 199 105.5t74 183.5q0 96 -73 173t-220 77h-2q-143 0 -225 -75t-82 -179z" />
<glyph unicode="9" d="M106 879q0 190 130.5 333.5t338.5 143.5q186 0 309.5 -144.5t123.5 -420.5q0 -223 -72 -384t-182 -257q-139 -123 -318 -156q-123 -23 -205 -19v93q59 -6 172 10q188 25 322 168q145 156 182 413l-6 -2q-145 -186 -381 -186q-195 0 -304.5 122t-109.5 286zM207 883 q0 -139 92 -232.5t236 -93.5q117 0 211 50t143 130q18 33 18 62q0 209 -89 341t-265 132h-2q-154 0 -249 -114.5t-95 -274.5z" />
<glyph unicode=":" horiz-adv-x="358" d="M113 70q0 41 24.5 68.5t63.5 27.5t62.5 -27.5t23.5 -68.5q0 -39 -24.5 -67t-63.5 -28h-2q-37 0 -61.5 29t-22.5 66zM113 817q0 41 24.5 68.5t63.5 27.5t62.5 -27.5t23.5 -68.5q0 -39 -24.5 -66.5t-63.5 -27.5h-2q-37 0 -61.5 28.5t-22.5 65.5z" />
<glyph unicode=";" horiz-adv-x="358" d="M55 -258q25 66 58.5 203t48.5 231l131 21q-27 -109 -79 -253.5t-79 -191.5zM127 817q0 41 24.5 68.5t63.5 27.5t62.5 -27.5t23.5 -68.5q0 -39 -24.5 -66.5t-63.5 -27.5h-2q-37 0 -61.5 28.5t-22.5 65.5z" />
<glyph unicode="&#x3c;" horiz-adv-x="1220" d="M145 510v70l930 510v-97l-833 -446v-4l833 -447v-96z" />
<glyph unicode="=" horiz-adv-x="1220" d="M82 317v82h1057v-82h-1057zM82 707v81h1057v-81h-1057z" />
<glyph unicode="&#x3e;" horiz-adv-x="1220" d="M145 0v96l834 447v4l-834 446v97l930 -510v-70z" />
<glyph unicode="?" horiz-adv-x="839" d="M106 1313q117 92 291 92q162 0 247 -89t85 -212q0 -86 -43 -166t-141 -186q-154 -170 -144 -316l5 -74h-93l-8 64q-23 172 152 360q164 176 164 312q0 96 -61.5 156.5t-180.5 60.5q-141 0 -232 -74zM274 70q0 41 25 68.5t63.5 27.5t62.5 -27.5t24 -68.5q0 -39 -25 -67 t-64 -28h-2q-37 0 -61.5 29t-22.5 66z" />
<glyph unicode="@" horiz-adv-x="1568" d="M78 442q0 319 210 544.5t560 225.5q289 0 466 -180t177 -452q0 -199 -109.5 -322t-251.5 -123q-68 0 -114.5 52.5t-36.5 152.5h-8q-121 -205 -334 -205q-92 0 -163 75t-71 189q0 201 148.5 340.5t353.5 139.5q129 0 236 -45l-70 -342q-57 -272 78 -277q94 -4 170 95.5 t76 258.5q0 250 -151.5 409t-412.5 159q-281 0 -469 -187.5t-188 -496.5q0 -256 164 -423t401 -167q209 0 342 84l33 -74q-162 -90 -381 -90q-272 0 -463.5 186t-191.5 473zM496 397q0 -78 46 -131t134 -53q111 0 205 109.5t114 222.5l47 231q-63 25 -149 25 q-162 0 -279.5 -116t-117.5 -288z" />
<glyph unicode="A" horiz-adv-x="1310" d="M61 0l557 1380h99l553 -1380h-105l-194 485h-615l-190 -485h-105zM391 569h547l-195 486q-39 96 -75 219h-4q-27 -88 -76 -213z" />
<glyph unicode="B" horiz-adv-x="1122" d="M180 0v1362q139 31 309 31q268 0 390 -121q86 -86 86 -228q0 -102 -69 -186t-175 -121v-6q43 -8 90 -30.5t97 -61.5t82 -105.5t32 -148.5q0 -156 -104 -260q-137 -137 -478 -137q-76 0 -260 12zM281 84q57 -12 194 -12q190 0 316.5 70.5t126.5 238.5q0 154 -121 230.5 t-310 76.5h-206v-604zM281 770h241q158 0 249 77t91 193q0 268 -379 269q-133 0 -202 -17v-522z" />
<glyph unicode="C" horiz-adv-x="1310" d="M78 684q0 137 51 265t145.5 230.5t247 164t340.5 61.5q227 0 373 -70l-33 -84q-139 70 -334 70q-328 0 -507 -178t-179 -467q0 -266 174 -440.5t488 -174.5q217 0 364 74l31 -80q-160 -80 -432 -80q-143 0 -271 44t-231.5 129t-165 223.5t-61.5 312.5z" />
<glyph unicode="D" horiz-adv-x="1482" d="M180 0v1362q229 31 414 31q442 0 645 -222q166 -180 166 -450q0 -299 -191 -504q-217 -229 -675 -229q-216 0 -359 12zM281 84q78 -12 274 -12q375 0 561.5 180t186.5 467v12q0 260 -176 417q-179 161 -541 161q-172 0 -305 -27v-1198z" />
<glyph unicode="E" horiz-adv-x="1046" d="M180 0v1380h750v-84h-649v-526h614v-84h-614v-602h684v-84h-785z" />
<glyph unicode="F" horiz-adv-x="1044" d="M180 0v1380h750v-84h-649v-542h593v-84h-593v-670h-101z" />
<glyph unicode="G" horiz-adv-x="1421" d="M78 692q0 127 48 248t142 224.5t253 167t358 63.5q219 0 368 -70l-33 -82q-145 68 -340 68q-328 0 -510 -177.5t-182 -445.5q0 -274 178.5 -446t487.5 -172q233 0 344 57v473h-356v82h456v-612q-215 -84 -463 -84q-340 0 -550 196q-94 88 -147.5 221t-53.5 289z" />
<glyph unicode="H" horiz-adv-x="1425" d="M180 0v1380h101v-604h864v604h100v-1380h-100v692h-864v-692h-101z" />
<glyph unicode="I" horiz-adv-x="460" d="M180 0v1380h101v-1380h-101z" />
<glyph unicode="J" horiz-adv-x="774" d="M12 14l25 82q74 -35 172 -35q152 0 226.5 91.5t74.5 324.5v903h100v-929q0 -475 -401 -476q-119 0 -197 39z" />
<glyph unicode="K" horiz-adv-x="1105" d="M180 0v1380h101v-706h8q31 41 125 139l551 567h127l-582 -587l643 -793h-125l-588 729l-159 -160v-569h-101z" />
<glyph unicode="L" horiz-adv-x="1003" d="M180 0v1380h101v-1296h684v-84h-785z" />
<glyph unicode="M" horiz-adv-x="1730" d="M137 0l111 1380h114l332 -823q102 -254 164 -440h4q49 154 170 438l348 825h119l98 -1380h-98l-43 651q-33 469 -33 619h-4q-86 -229 -207 -516l-319 -754h-76l-299 743q-143 356 -194 527h-5q-14 -399 -34 -639l-49 -631h-99z" />
<glyph unicode="N" horiz-adv-x="1445" d="M180 0v1380h94l625 -850q215 -293 281 -403l4 4q-16 182 -17 537v712h99v-1380h-92l-605 821q-225 307 -297 428l-6 -4q12 -186 13 -508v-737h-99z" />
<glyph unicode="O" horiz-adv-x="1542" d="M78 672q0 322 200.5 527.5t499.5 205.5q301 0 493.5 -197.5t192.5 -498.5q0 -340 -205.5 -537t-492.5 -197h-2q-295 0 -490.5 198t-195.5 499zM182 676q0 -254 161 -436.5t423 -182.5h2q268 0 430 181.5t162 461.5q0 246 -155.5 434.5t-430.5 188.5q-281 0 -436.5 -187.5 t-155.5 -459.5z" />
<glyph unicode="P" horiz-adv-x="1122" d="M180 0v1366q164 27 328 27q270 0 399 -123q111 -104 111 -269q0 -178 -107 -284q-143 -150 -434 -150q-133 0 -196 21v-588h-101zM281 676q76 -25 208 -25q205 0 317 89t112 249q0 168 -114 244t-298 76q-133 0 -225 -19v-614z" />
<glyph unicode="Q" horiz-adv-x="1542" d="M78 670q0 326 200.5 530.5t501.5 204.5t492.5 -197.5t191.5 -498.5q0 -272 -134 -451.5t-361 -247.5v-8q410 -80 510 -94l-29 -94q-301 63 -592 141q-76 20 -88 20q-297 8 -494.5 198t-197.5 497zM182 672q0 -254 161 -434.5t421 -180.5h2q268 0 431 181.5t163 461.5 q0 246 -154.5 434.5t-425.5 188.5q-285 0 -441.5 -189.5t-156.5 -461.5z" />
<glyph unicode="R" horiz-adv-x="1124" d="M180 0v1362q158 31 336 31q279 0 404 -123q98 -92 98 -242q0 -133 -77 -226t-208 -132v-4q166 -57 219 -281q74 -315 113 -385h-107q-29 49 -92 332q-35 152 -109.5 222.5t-213.5 78.5h-262v-633h-101zM281 715h266q170 0 270.5 81t100.5 216q0 156 -112 227.5t-292 71.5 q-147 0 -233 -23v-573z" />
<glyph unicode="S" horiz-adv-x="1034" d="M94 78l39 84q150 -102 342 -103q166 0 262.5 80t96.5 209q0 119 -70 192.5t-242 129.5q-207 66 -297 155.5t-90 225.5q0 154 120 254t308 100q201 0 307 -70l-39 -84q-104 72 -272 72t-247 -80t-79 -178q0 -111 72 -180.5t240 -122.5q201 -66 294 -155t93 -249 q0 -158 -119 -270.5t-350 -112.5q-100 0 -204 29t-165 74z" />
<glyph unicode="T" horiz-adv-x="1044" d="M-41 1296v84h1128v-84h-514v-1296h-100v1296h-514z" />
<glyph unicode="U" horiz-adv-x="1415" d="M180 582v798h101v-796q0 -266 115.5 -395.5t299.5 -129.5q201 0 320 131.5t119 393.5v796h100v-788q0 -313 -152.5 -465t-392.5 -152q-223 0 -366.5 146t-143.5 461z" />
<glyph unicode="V" horiz-adv-x="1116" d="M-16 1380h106l272 -759q145 -408 179 -519h4q47 143 198 516l308 762h108l-573 -1380h-99z" />
<glyph unicode="W" horiz-adv-x="1804" d="M23 1380h102l219 -792q94 -336 125 -463h4q27 119 139 463l254 792h99l223 -790q96 -342 119 -465h4q25 94 139 461l254 794h104l-456 -1380h-99l-223 791q-92 330 -117 473h-4q-27 -131 -139 -469l-258 -795h-98z" />
<glyph unicode="X" horiz-adv-x="1228" d="M66 0l483 698l-463 682h119l246 -372l159 -242h4q23 35 166 240l262 374h121l-495 -675l495 -705h-119l-229 326l-211 303h-4q-51 -82 -201 -305l-215 -324h-118z" />
<glyph unicode="Y" horiz-adv-x="1107" d="M25 1380h114l256 -430l168 -288h4q35 70 172 288l269 430h114l-514 -794v-586h-100v590z" />
<glyph unicode="Z" horiz-adv-x="1239" d="M76 0v68l944 1222v6h-866v84h999v-69l-946 -1221v-6h960v-84h-1091z" />
<glyph unicode="[" horiz-adv-x="552" d="M184 -229v1634h379v-78h-287v-1479h287v-77h-379z" />
<glyph unicode="\" horiz-adv-x="757" d="M-20 1405h102l725 -1487h-102z" />
<glyph unicode="]" horiz-adv-x="552" d="M-10 -152h286v1479h-286v78h379v-1634h-379v77z" />
<glyph unicode="^" horiz-adv-x="1220" d="M143 401l420 930h94l420 -930h-96l-369 838h-4l-368 -838h-97z" />
<glyph unicode="_" horiz-adv-x="1024" d="M0 -154h1024v-102h-1024v102z" />
<glyph unicode="`" horiz-adv-x="614" d="M59 1417h152l186 -287h-78z" />
<glyph unicode="a" horiz-adv-x="1015" d="M86 246q0 174 166 270q159 92 473 92h27v23q0 31 -3.5 60.5t-19.5 74.5t-44 78t-83 56.5t-129 23.5q-166 0 -283 -82l-32 71q143 94 323 95q371 0 371 -414v-356q0 -131 16 -238h-92l-16 152h-4q-47 -68 -140.5 -122.5t-216.5 -54.5q-154 0 -233.5 84.5t-79.5 186.5z M193 264q0 -100 61 -153.5t154 -53.5q129 0 213 60.5t118 140.5q12 31 13 57v209l-65 2q-71 0 -134 -7q-90 -9 -176 -35.5t-135 -82t-49 -137.5z" />
<glyph unicode="b" horiz-adv-x="1255" d="M172 0q8 106 8 238v1228h101v-686h4q121 227 409 228q211 0 342 -145.5t131 -356.5q0 -248 -146.5 -389.5t-342.5 -141.5q-272 0 -404 215h-4l-6 -190h-92zM281 391q0 -35 10 -76q33 -109 134 -183.5t237 -74.5q186 0 295.5 121t109.5 324q0 178 -107.5 301t-285.5 123 q-127 0 -231.5 -72t-145.5 -203q-16 -49 -16 -90v-170z" />
<glyph unicode="c" horiz-adv-x="1019" d="M88 477q0 242 159 386.5t400 144.5q199 0 299 -70l-37 -82q-115 66 -270 66q-213 0 -332 -123t-119 -310q0 -190 123 -309t312 -119q133 0 286 66l29 -80q-152 -72 -330 -72q-231 0 -375.5 142.5t-144.5 359.5z" />
<glyph unicode="d" horiz-adv-x="1232" d="M88 476q0 231 141 380q143 152 355 152q139 0 232 -57.5t132 -131.5h4v647h101v-1228q0 -131 8 -238h-92l-6 205h-5q-47 -100 -149 -165t-248 -65q-205 0 -339 144t-134 357zM188 481q0 -178 102.5 -301t293.5 -123q125 0 225 77t131 194q12 41 12 86v174q0 53 -12 96 q-35 104 -128 173t-226 69q-176 0 -287 -123t-111 -322z" />
<glyph unicode="e" horiz-adv-x="1099" d="M88 467q0 246 139.5 393.5t352.5 147.5q104 0 184 -36t125 -86t72.5 -117t37 -118t9.5 -98q0 -45 -4 -61h-818q0 -207 116 -319t300 -112q180 0 316 62l26 -80q-143 -68 -352 -68q-227 0 -365.5 138.5t-138.5 353.5zM193 571h710q0 47 -12 99.5t-44 115t-104.5 101.5 t-175.5 39q-117 0 -202.5 -59.5t-122.5 -135.5t-49 -160z" />
<glyph unicode="f" horiz-adv-x="583" d="M31 903v80h149v47q0 260 119 373q94 88 233 88q100 0 162 -37l-32 -78q-57 31 -138 31q-72 0 -122 -29.5t-75.5 -85t-35.5 -117t-10 -143.5v-49h288v-80h-288v-903h-101v903h-149z" />
<glyph unicode="g" horiz-adv-x="1232" d="M88 479q0 238 146.5 383.5t345.5 145.5q147 0 242.5 -61.5t135.5 -145.5h5l6 182h92q-8 -106 -8 -238v-600q0 -324 -152 -458q-135 -121 -369 -121q-223 0 -350 96l37 80q141 -94 330 -94q186 0 294.5 101t108.5 317v143h-4q-49 -88 -148.5 -148.5t-242.5 -60.5 q-205 0 -337 143t-132 336zM188 492q0 -164 102.5 -287t295.5 -123q115 0 210 66.5t136 168.5q20 51 20 107v164q0 59 -14 102q-37 102 -129 169t-219 67q-178 0 -290 -119.5t-112 -314.5z" />
<glyph unicode="h" horiz-adv-x="1210" d="M180 0v1466h101v-682h4q51 102 151 160q104 63 221 64q37 0 77 -7.5t98.5 -34t101.5 -71.5t74.5 -132t31.5 -202v-561h-100v557q0 158 -74.5 260.5t-234.5 102.5q-113 0 -205 -68t-129 -164q-16 -41 -16 -104v-584h-101z" />
<glyph unicode="i" horiz-adv-x="460" d="M147 1274q0 35 25 61.5t59.5 26.5t58 -25.5t23.5 -62.5q0 -35 -23.5 -61.5t-60.5 -26.5h-2q-35 0 -57.5 26.5t-22.5 61.5zM180 0v983h101v-983h-101z" />
<glyph unicode="j" horiz-adv-x="471" d="M-119 -352q154 4 228 80q45 49 63 133t18 284v838h101v-911q0 -139 -23.5 -233.5t-89.5 -164.5q-53 -55 -136 -81.5t-151 -26.5zM158 1274q0 35 24.5 61.5t61.5 26.5q35 0 57.5 -26.5t22.5 -61.5t-22.5 -61.5t-61.5 -26.5h-2q-35 0 -57.5 26.5t-22.5 61.5z" />
<glyph unicode="k" horiz-adv-x="937" d="M180 0v1466h101v-956h4q49 57 108 113l383 360h127l-438 -405l502 -578h-125l-449 520l-112 -108v-412h-101z" />
<glyph unicode="l" horiz-adv-x="460" d="M180 0v1466h101v-1466h-101z" />
<glyph unicode="m" horiz-adv-x="1837" d="M172 983h94l8 -190h5q125 215 354 215q111 0 192.5 -67t116.5 -167h4q39 82 103 137q113 96 268 97q35 0 72.5 -8.5t90 -37t92.5 -74.5t68.5 -134t28.5 -205v-549h-100v547q0 184 -75 279.5t-212 95.5q-96 0 -174 -58.5t-113 -140.5q-20 -53 -20 -96v-627h-101v598 q0 145 -73.5 234.5t-196.5 89.5q-104 0 -186 -69t-119 -159q-18 -47 -18 -96v-598h-101v745q0 132 -8 238z" />
<glyph unicode="n" horiz-adv-x="1210" d="M172 983h94l8 -197h5q47 96 148 159t230 63q35 0 75 -7.5t98.5 -35t102.5 -72.5t75.5 -132t31.5 -202v-559h-100v559q0 158 -76 260.5t-233 102.5q-115 0 -207 -68t-127 -166q-16 -45 -16 -88v-600h-101v745q0 132 -8 238z" />
<glyph unicode="o" horiz-adv-x="1210" d="M88 481q0 238 152.5 382.5t367.5 144.5q231 0 372.5 -144.5t141.5 -359.5q0 -133 -48 -237.5t-126 -166t-168 -93.5t-184 -32h-2q-219 0 -362.5 143.5t-143.5 362.5zM188 487q0 -197 121 -313.5t289 -116.5h2q172 0 297 119t125 322q0 162 -107.5 295t-306 133 t-309.5 -127.5t-111 -311.5z" />
<glyph unicode="p" horiz-adv-x="1255" d="M172 983h96l8 -205h5q127 229 413 230q211 0 342 -144.5t131 -351.5q0 -248 -143 -392.5t-354 -144.5q-121 0 -223.5 51.5t-161.5 149.5h-4v-586h-101v1076q0 176 -8 317zM281 395q0 -37 10 -78q33 -109 135 -184.5t236 -75.5q186 0 295.5 122t109.5 329 q0 174 -107.5 296t-285.5 122q-127 0 -230.5 -71t-144.5 -200q-18 -59 -18 -86v-174z" />
<glyph unicode="q" horiz-adv-x="1228" d="M88 469q0 139 46 246.5t122 169t162 92.5t174 31q141 0 234.5 -62.5t131.5 -146.5h5l6 184h92q-8 -106 -8 -238v-1155h-101v598h-4q-45 -90 -146.5 -151.5t-242.5 -61.5q-203 0 -337 144.5t-134 349.5zM188 483q0 -176 99.5 -301t292.5 -125q119 0 213 64.5t137 171.5 q23 53 22 98v199q0 53 -12 96q-35 102 -128 171t-224 69q-176 0 -288 -121t-112 -322z" />
<glyph unicode="r" horiz-adv-x="655" d="M172 983h92l4 -213h6q39 106 118 172t183 66q27 0 48 -7v-92q-18 4 -58 4q-102 0 -176 -77.5t-98 -206.5q-10 -47 -10 -97v-532h-101v666q0 176 -8 317z" />
<glyph unicode="s" horiz-adv-x="835" d="M102 47l37 86q119 -74 246 -74q123 0 185.5 54.5t62.5 136.5t-55.5 131t-176.5 88q-266 86 -266 266q0 113 86 193t238 80q141 0 237 -66l-39 -82q-92 63 -217 64q-96 0 -151.5 -51.5t-55.5 -124.5q0 -78 54.5 -120t175.5 -83q139 -47 203.5 -112.5t64.5 -174.5 q0 -123 -95 -203t-259 -80q-152 0 -275 72z" />
<glyph unicode="t" horiz-adv-x="694" d="M41 903v80h180v186l101 31v-217h311v-80h-311v-629q0 -213 157 -213q78 0 129 19l13 -78q-66 -27 -152 -27q-121 0 -182 74q-66 74 -66 238v616h-180z" />
<glyph unicode="u" horiz-adv-x="1200" d="M170 432v551h100v-530q0 -389 297 -390q109 0 198 59.5t130 149.5q25 61 25 115v596h100v-745q0 -131 8 -238h-94l-6 199h-4q-51 -94 -148.5 -159t-234.5 -65q-43 0 -83 7.5t-95.5 35t-95.5 73.5t-68.5 134t-28.5 207z" />
<glyph unicode="v" horiz-adv-x="1015" d="M29 983h108l256 -606q82 -190 113 -279h4q10 27 119 279l262 606h106l-448 -983h-90z" />
<glyph unicode="w" horiz-adv-x="1605" d="M49 983h105l180 -573q61 -199 90 -304h4q29 92 109 304l219 573h100l209 -571q57 -156 104 -306h5q27 100 96 304l196 573h103l-357 -983h-90l-200 543q-84 221 -117 350h-4q-39 -139 -123 -352l-215 -541h-90z" />
<glyph unicode="x" horiz-adv-x="962" d="M20 0l400 504l-375 479h115l188 -242q66 -82 125 -166h4q33 47 127 166l189 242h112l-377 -477l396 -506h-117l-197 250l-139 186h-4q-29 -45 -137 -186l-193 -250h-117z" />
<glyph unicode="y" horiz-adv-x="983" d="M18 983h109l293 -657q53 -117 80 -207h4q53 145 82 215l274 649h109l-348 -795q-106 -244 -183.5 -367.5t-171.5 -191.5q-98 -72 -180 -88l-27 84q104 31 181 96q115 96 188 265q12 27 12 39q0 14 -14 45z" />
<glyph unicode="z" horiz-adv-x="901" d="M33 0v61l588 693l127 143v4h-672v82h794l-2 -70l-587 -692l-117 -135v-4h713v-82h-844z" />
<glyph unicode="{" horiz-adv-x="552" d="M45 553v74q109 -2 145.5 41t36.5 118q0 59 -20 175q-23 104 -23 172q0 135 85 203.5t227 68.5h26v-78h-39q-111 0 -159 -51t-48 -156q0 -55 20.5 -161.5t20.5 -161.5q0 -74 -35.5 -129.5t-95.5 -73.5v-4q57 -18 94 -76.5t37 -130.5q0 -55 -20 -162q-20 -111 -21 -164 q0 -209 207 -209h39v-77h-26q-143 0 -227.5 70.5t-84.5 224.5q0 66 23 163q20 111 20 164q0 164 -182 160z" />
<glyph unicode="|" horiz-adv-x="448" d="M180 -512v2048h88v-2048h-88z" />
<glyph unicode="}" horiz-adv-x="552" d="M31 -152h39q207 0 206 209q0 53 -20 164q-20 106 -20 162q0 72 36.5 130t94.5 77v4q-59 18 -95 73.5t-36 129.5q0 55 20 161.5t20 161.5q0 104 -48 155.5t-158 51.5h-39v78h26q141 0 226.5 -68.5t85.5 -203.5q0 -57 -21 -172q-23 -104 -22 -175q0 -76 36.5 -118.5 t145.5 -40.5v-74q-182 4 -182 -160q0 -61 22 -164q20 -106 21 -163q0 -154 -84 -224.5t-228 -70.5h-26v77z" />
<glyph unicode="~" horiz-adv-x="1220" d="M86 446q-8 123 60.5 199t166.5 76q59 0 112.5 -17.5t190.5 -76.5q8 -4 40 -18l41 -17q9 -4 37 -14.5t40 -14.5l35 -11q23 -7 38 -10t34.5 -5t38.5 -2q137 0 137 184h78q6 -139 -60.5 -207t-161.5 -68q-98 0 -315 93l-73 32q-54 25 -77.5 33t-62.5 18.5t-72 10.5 q-147 0 -147 -185h-80z" />
<glyph unicode="&#xa2;" d="M123 662q0 213 129 351t330 163v221h86v-221q160 0 276 -66l-39 -82q-106 68 -268 68q-180 0 -299 -120t-119 -302q0 -186 115 -300t284 -114q162 0 291 68l29 -74q-106 -66 -270 -74v-221h-86v219q-211 18 -338 152q-121 127 -121 332z" />
<glyph unicode="&#xa3;" d="M141 0v63q248 141 248 394q0 88 -12 176h-232v80h224q-27 160 -27 252q0 172 104.5 281.5t268.5 109.5q141 0 231 -53l-33 -78q-82 47 -208 47q-133 0 -200 -81t-67 -228q0 -111 25 -250h332v-80h-322q16 -190 -2 -275q-35 -160 -172 -268v-4h700v-86h-858z" />
<glyph unicode="&#xa5;" d="M55 1331h109l287 -504q66 -115 81 -151h9q20 57 82 158l301 497h106l-412 -655h295v-76h-338v-156h338v-75h-338v-369h-96v369h-338v75h338v156h-338v76h299z" />
<glyph unicode="&#xa8;" horiz-adv-x="614" d="M45 1274q0 33 23.5 58.5t56.5 25.5t55.5 -24.5t22.5 -59.5t-21.5 -59.5t-58.5 -24.5h-2q-35 0 -55.5 24.5t-20.5 59.5zM412 1274q0 33 23.5 58.5t56 25.5t55 -24.5t22.5 -59.5t-21.5 -59.5t-58.5 -24.5h-2q-35 0 -55 24.5t-20 59.5z" />
<glyph unicode="&#xa9;" horiz-adv-x="1386" d="M82 696q0 262 178 446.5t436 184.5h2q256 0 431.5 -184.5t175.5 -446.5q0 -266 -176.5 -450.5t-432.5 -184.5q-258 0 -436 185.5t-178 449.5zM164 688q0 -238 152.5 -399.5t379.5 -161.5q223 -4 375 161t152 408q0 240 -151.5 403t-375.5 163h-2q-225 0 -377.5 -164 t-152.5 -410zM358 684q0 168 114 274.5t273.5 106.5t225.5 -55l-21 -64q-80 51 -202 51q-152 0 -229 -86t-77 -221q0 -133 80 -221t230 -88q129 0 211 57l20 -59q-92 -66 -252 -66q-172 0 -272.5 104.5t-100.5 266.5z" />
<glyph unicode="&#xab;" horiz-adv-x="839" d="M61 516l320 377h106l-319 -377l321 -377h-106zM369 516l319 377h107l-320 -377l322 -377h-107z" />
<glyph unicode="&#xad;" horiz-adv-x="614" d="M61 535v88h492v-88h-492z" />
<glyph unicode="&#xae;" horiz-adv-x="825" d="M76 1067q0 137 98 233.5t240 96.5h2q141 0 237.5 -95.5t96.5 -234.5q0 -141 -96.5 -237.5t-239.5 -96.5q-141 0 -239.5 96.5t-98.5 237.5zM150 1067q0 -117 75.5 -195.5t190.5 -78.5q111 -2 185.5 77.5t74.5 194.5t-75 194.5t-187 79.5h-2q-111 0 -186.5 -79.5 t-75.5 -192.5zM289 885v346q61 10 123 10q72 0 108 -27q35 -25 35 -73q0 -59 -68 -82v-4q43 -16 58 -84q12 -66 26 -86h-67q-12 14 -29 90q-12 55 -80 55h-41v-145h-65zM354 1079h43q90 0 90 56q0 57 -84 57q-29 0 -49 -4v-109z" />
<glyph unicode="&#xb4;" horiz-adv-x="614" d="M242 1130l186 287h152l-261 -287h-77z" />
<glyph unicode="&#xb8;" horiz-adv-x="614" d="M109 -375l22 72q47 -27 115 -27q45 0 74.5 17.5t27.5 56.5q-2 76 -166 90l109 166h78l-78 -111q59 -8 101 -43.5t42 -91.5q0 -160 -203 -160q-71 0 -122 31z" />
<glyph unicode="&#xbb;" horiz-adv-x="839" d="M43 893h107l321 -377l-321 -377h-105l320 377zM350 893h107l321 -377l-321 -377h-105l320 377z" />
<glyph unicode="&#x2c6;" horiz-adv-x="614" d="M68 1130l196 287h78l205 -287h-105l-137 209h-4l-137 -209h-96z" />
<glyph unicode="&#x2da;" horiz-adv-x="819" d="M217 1286q0 80 55.5 134.5t139.5 54.5h2q80 0 134 -54.5t54 -134.5q0 -78 -57.5 -131t-132.5 -53q-82 0 -138.5 53t-56.5 131zM299 1286q0 -47 31.5 -85t79.5 -38q49 0 81.5 37t32.5 88q0 53 -31.5 89t-82.5 36h-2q-47 0 -78 -37t-31 -90z" />
<glyph unicode="&#x2dc;" horiz-adv-x="614" d="M72 1180q-2 86 31.5 135t93.5 49q33 0 135 -51q61 -31 86 -31q53 0 59 88h68q0 -178 -123 -178q-41 0 -123 43q-72 39 -100 39q-49 0 -58 -94h-69z" />
<glyph unicode="&#x410;" horiz-adv-x="1310" d="M61 0l557 1380h99l553 -1380h-105l-194 485h-615l-190 -485h-105zM391 569h547l-195 486q-39 96 -75 219h-4q-27 -88 -76 -213z" />
<glyph unicode="&#x411;" horiz-adv-x="1132" d="M180 0v1380h748v-84h-647v-442q72 10 194 10q209 0 348 -69q215 -106 215 -357q0 -178 -108 -293q-152 -158 -486 -157q-80 0 -264 12zM281 82q76 -12 192 -12q111 0 213 33.5t164 99.5q86 90 86 229q0 193 -156 281q-119 68 -313 67q-90 0 -186 -10v-688z" />
<glyph unicode="&#x412;" horiz-adv-x="1122" d="M180 0v1362q139 31 309 31q268 0 390 -121q86 -86 86 -228q0 -102 -69 -186t-175 -121v-6q43 -8 90 -30.5t97 -61.5t82 -105.5t32 -148.5q0 -156 -104 -260q-137 -137 -478 -137q-76 0 -260 12zM281 84q57 -12 194 -12q190 0 316.5 70.5t126.5 238.5q0 154 -121 230.5 t-310 76.5h-206v-604zM281 770h241q158 0 249 77t91 193q0 268 -379 269q-133 0 -202 -17v-522z" />
<glyph unicode="&#x413;" horiz-adv-x="874" d="M180 0v1380h735v-84h-634v-1296h-101z" />
<glyph unicode="&#x414;" horiz-adv-x="1325" d="M20 84h101q10 18 35 59l41 68q16 27 35.5 66.5t31.5 74.5q82 229 82 672v356h768v-1296h121l-12 -422h-82l-11 338h-1005l-10 -338h-82zM227 84h787v1212h-574v-329q0 -414 -86 -641q-43 -113 -127 -242z" />
<glyph unicode="&#x415;" horiz-adv-x="1046" d="M180 0v1380h750v-84h-649v-526h614v-84h-614v-602h684v-84h-785z" />
<glyph unicode="&#x416;" horiz-adv-x="1708" d="M37 0q35 70 84 201t63 164q74 182 168 269t273 101l-551 645h116l533 -635h84v635h96v-635h86l529 635h118l-553 -645q180 -14 273.5 -101t167.5 -269q16 -37 64 -167t83 -198h-104q-33 57 -79 180t-56 148q-76 186 -164 262t-281 76h-84v-666h-96v666h-88 q-100 0 -171 -19.5t-121 -67t-83 -102.5t-72 -149q-10 -23 -56 -147t-75 -181h-104z" />
<glyph unicode="&#x417;" horiz-adv-x="1003" d="M72 66l37 77q150 -88 319 -88q178 0 276.5 89t98.5 227q0 90 -41 153.5t-110.5 97t-145.5 48t-160 14.5h-53v78h57q166 0 280.5 90t114.5 213q0 127 -77.5 193.5t-206.5 66.5q-154 0 -299 -100l-33 75q158 104 344 105q164 0 270.5 -83t106.5 -245q0 -127 -88 -224 t-217 -122v-4q166 -12 264 -105.5t98 -250.5q0 -201 -139 -298.5t-344 -97.5q-200 1 -352 91z" />
<glyph unicode="&#x418;" horiz-adv-x="1445" d="M180 0v1380h99v-712q0 -354 -17 -537l4 -4q57 98 283 403l625 850h92v-1380h-99v737q0 322 13 508l-6 4q-63 -104 -300 -428l-604 -821h-90z" />
<glyph unicode="&#x419;" horiz-adv-x="1445" d="M180 0v1380h99v-712q0 -354 -17 -537l4 -4q57 98 283 403l625 850h92v-1380h-99v737q0 322 13 508l-6 4q-63 -104 -300 -428l-604 -821h-90zM479 1669h94q6 -29 12.5 -45t22 -40.5t45 -36t72.5 -11.5t72.5 11.5t44 33t20.5 40.5t10 48h95q-8 -209 -248 -209 q-121 0 -178.5 58.5t-61.5 150.5z" />
<glyph unicode="&#x41a;" horiz-adv-x="1132" d="M180 0v1380h101v-635h84l593 635h119l-612 -643q197 -16 299 -107t182 -270q143 -319 166 -360h-106q-49 86 -156 334q-72 170 -182.5 251t-321.5 81h-65v-666h-101z" />
<glyph unicode="&#x41b;" horiz-adv-x="1269" d="M-20 66q90 16 161 88q49 47 80 131t42 202.5t13.5 179t2.5 169.5v544h811v-1380h-101v1296h-610v-452v-131q0 -31 -4 -134.5t-17 -157.5l-31 -134q-19 -80 -54 -133.5t-83 -90.5q-100 -76 -200 -75z" />
<glyph unicode="&#x41c;" horiz-adv-x="1730" d="M137 0l111 1380h114l332 -823q102 -254 164 -440h4q49 154 170 438l348 825h119l98 -1380h-98l-43 651q-33 469 -33 619h-4q-86 -229 -207 -516l-319 -754h-76l-299 743q-143 356 -194 527h-5q-14 -399 -34 -639l-49 -631h-99z" />
<glyph unicode="&#x41d;" horiz-adv-x="1425" d="M180 0v1380h101v-604h864v604h100v-1380h-100v692h-864v-692h-101z" />
<glyph unicode="&#x41e;" horiz-adv-x="1542" d="M78 672q0 322 200.5 527.5t499.5 205.5q301 0 493.5 -197.5t192.5 -498.5q0 -340 -205.5 -537t-492.5 -197h-2q-295 0 -490.5 198t-195.5 499zM182 676q0 -254 161 -436.5t423 -182.5h2q268 0 430 181.5t162 461.5q0 246 -155.5 434.5t-430.5 188.5q-281 0 -436.5 -187.5 t-155.5 -459.5z" />
<glyph unicode="&#x41f;" horiz-adv-x="1390" d="M180 0v1380h1030v-1380h-100v1296h-829v-1296h-101z" />
<glyph unicode="&#x420;" horiz-adv-x="1122" d="M180 0v1366q164 27 328 27q270 0 399 -123q111 -104 111 -269q0 -178 -107 -284q-143 -150 -434 -150q-133 0 -196 21v-588h-101zM281 676q76 -25 208 -25q205 0 317 89t112 249q0 168 -114 244t-298 76q-133 0 -225 -19v-614z" />
<glyph unicode="&#x421;" horiz-adv-x="1310" d="M78 684q0 137 51 265t145.5 230.5t247 164t340.5 61.5q227 0 373 -70l-33 -84q-139 70 -334 70q-328 0 -507 -178t-179 -467q0 -266 174 -440.5t488 -174.5q217 0 364 74l31 -80q-160 -80 -432 -80q-143 0 -271 44t-231.5 129t-165 223.5t-61.5 312.5z" />
<glyph unicode="&#x422;" horiz-adv-x="1044" d="M-41 1296v84h1128v-84h-514v-1296h-100v1296h-514z" />
<glyph unicode="&#x423;" horiz-adv-x="1069" d="M-4 1380h115l362 -671q45 -84 111 -224h4q29 72 100 230l295 665h107l-365 -796q-152 -336 -264 -461q-131 -145 -287 -146q-59 0 -74 7l17 84q16 -4 49 -5q63 0 119.5 28t99.5 78t68.5 90t56.5 99q14 31 12 49.5t-20 51.5z" />
<glyph unicode="&#x424;" horiz-adv-x="1562" d="M78 680q0 164 59.5 290t157.5 195.5t207.5 105.5t230.5 40v131h101v-131q100 -2 191 -23.5t176 -71t147.5 -120t99.5 -176t37 -234.5q0 -154 -55.5 -272.5t-149.5 -189t-208 -108.5t-243 -42v-135h-100v135q-127 6 -238.5 42t-207 105.5t-150.5 187t-55 271.5zM184 690 q0 -256 155 -390t392 -150v1085q-98 -2 -189 -31.5t-174 -90t-133.5 -170.5t-50.5 -253zM831 150q106 4 201.5 37.5t174.5 96t125 166t46 236.5q0 143 -45 252t-124 170t-173 92t-205 35v-1085z" />
<glyph unicode="&#x425;" horiz-adv-x="1228" d="M66 0l483 698l-463 682h119l246 -372l159 -242h4q23 35 166 240l262 374h121l-495 -675l495 -705h-119l-229 326l-211 303h-4q-51 -82 -201 -305l-215 -324h-118z" />
<glyph unicode="&#x426;" horiz-adv-x="1411" d="M180 0v1380h101v-1296h819v1296h100v-1296h121l-12 -422h-84l-8 338h-1037z" />
<glyph unicode="&#x427;" horiz-adv-x="1284" d="M174 915v465h100v-460q0 -172 94.5 -264.5t274.5 -92.5q203 0 361 111v706h100v-1380h-100v588h-5q-158 -111 -387 -111q-438 0 -438 438z" />
<glyph unicode="&#x428;" horiz-adv-x="1808" d="M180 0v1380h101v-1296h573v1296h100v-1296h574v1296h100v-1380h-1448z" />
<glyph unicode="&#x429;" horiz-adv-x="1839" d="M180 0v1380h101v-1296h573v1296h100v-1296h574v1296h100v-1296h121l-12 -422h-84l-8 338h-1465z" />
<glyph unicode="&#x42a;" horiz-adv-x="1271" d="M-41 1296v84h481v-526q72 10 185 10q86 0 161.5 -13t148.5 -44t126 -79t85 -122t32 -168q0 -178 -109 -293q-152 -158 -475 -157q-70 0 -254 12v1296h-381zM440 82q76 -12 183 -12q199 0 325.5 89t126.5 273q0 127 -69.5 209t-165 110.5t-213.5 28.5q-90 0 -187 -10v-688 z" />
<glyph unicode="&#x42b;" horiz-adv-x="1499" d="M180 0v1380h101v-528q63 12 194 12q92 0 172 -13t153.5 -44t125 -79t82 -122t30.5 -168q0 -178 -108 -293q-152 -158 -486 -157q-80 0 -264 12zM281 82q76 -12 192 -12q199 0 331 90t132 272q0 186 -133 267t-336 81q-115 0 -186 -10v-688zM1219 0v1380h100v-1380h-100z " />
<glyph unicode="&#x42c;" horiz-adv-x="1132" d="M180 0v1380h101v-528q63 12 194 12q152 0 272.5 -36.5t205.5 -136t85 -253.5q0 -178 -108 -293q-152 -158 -486 -157q-80 0 -264 12zM281 82q76 -12 192 -12q199 0 331 89t132 273q0 186 -133 267t-336 81q-90 0 -186 -10v-688z" />
<glyph unicode="&#x42d;" horiz-adv-x="1261" d="M72 59l28 86q182 -86 363 -86q274 0 443 164t173 445h-755v82h751q-25 266 -183.5 418.5t-408.5 152.5q-158 0 -358 -90l-33 80q211 94 397 94q311 0 503 -194.5t192 -526.5q0 -176 -59.5 -315.5t-159 -223.5t-219 -127t-248.5 -43q-229 0 -426 84z" />
<glyph unicode="&#x42e;" horiz-adv-x="1894" d="M180 0v1380h101v-635h249q20 303 194.5 481.5t455.5 178.5q293 0 465 -195.5t172 -500.5q0 -348 -188.5 -541t-461.5 -193q-285 0 -460 189.5t-179 497.5h-247v-662h-101zM629 676q0 -256 147.5 -437.5t390.5 -181.5h2q248 0 395.5 181.5t147.5 461.5q0 158 -56.5 295.5 t-181 232.5t-298.5 95q-262 0 -404.5 -187.5t-142.5 -459.5z" />
<glyph unicode="&#x42f;" horiz-adv-x="1134" d="M41 0q37 66 49 94q16 39 61.5 162t87.5 204t99 136q53 51 121 70v4q-152 18 -247 114.5t-95 227.5q0 166 108 262q133 119 404 119q168 0 325 -31v-1362h-100v633h-199q-164 0 -241 -80q-47 -49 -85 -128t-78 -192.5t-56.5 -150.5t-42.5 -82h-111zM217 1020 q0 -141 117 -222t307 -83q170 0 213 2v571q-86 23 -227 23q-410 0 -410 -291z" />
<glyph unicode="&#x430;" horiz-adv-x="1015" d="M86 246q0 174 166 270t500 92v23q0 31 -3.5 60.5t-19.5 74.5t-44 78t-83 56.5t-129 23.5q-166 0 -283 -82l-32 71q143 94 323 95q371 0 371 -414v-356q0 -131 16 -238h-92l-16 152h-4q-47 -68 -140.5 -122.5t-216.5 -54.5q-154 0 -233.5 84.5t-79.5 186.5zM193 264 q0 -100 61 -153.5t154 -53.5q129 0 213 60.5t118 140.5q12 31 13 57v209q-109 4 -199 -5t-176 -35.5t-135 -82t-49 -137.5z" />
<glyph unicode="&#x431;" horiz-adv-x="1120" d="M88 664q0 289 127 489q76 121 193.5 181.5t306.5 95.5q111 20 215 61l-2 -92q-78 -33 -187 -49q-160 -27 -268 -81.5t-176 -154.5q-102 -147 -123 -399h4q55 133 166 200.5t234 67.5q199 0 326.5 -128t127.5 -355q0 -238 -116.5 -381.5t-354.5 -143.5q-137 0 -234.5 61.5 t-146.5 167t-70.5 217.5t-21.5 243zM205 504q0 -172 98 -310.5t266 -138.5q182 0 272.5 123t90.5 307v2q0 162 -88 288t-279 126q-213 0 -309 -186q-51 -96 -51 -211z" />
<glyph unicode="&#x432;" horiz-adv-x="1034" d="M170 0v971q123 20 289 20q434 0 434 -243q0 -88 -58.5 -147.5t-150.5 -78.5v-4q115 -12 186.5 -73.5t71.5 -170.5q0 -283 -516 -282q-35 0 -256 8zM260 86q100 -8 195 -8q385 0 385 196q0 66 -31 108t-93.5 60.5t-121.5 24.5t-148 6h-186v-387zM262 553h197 q137 0 234.5 41t97.5 141q0 170 -345 170q-57 0 -184 -10v-342z" />
<glyph unicode="&#x433;" horiz-adv-x="813" d="M170 0v983h604v-84h-504v-899h-100z" />
<glyph unicode="&#x434;" horiz-adv-x="1089" d="M16 84h86q63 100 97 192q68 205 67 455v252h633v-899h102l-8 -410h-86l-6 326h-784l-6 -326h-86zM213 84h586v817h-441v-194q0 -236 -61 -433q-21 -63 -84 -190z" />
<glyph unicode="&#x435;" horiz-adv-x="1099" d="M88 467q0 246 139.5 393.5t352.5 147.5q104 0 184 -36t125 -86t72.5 -117t37 -118t9.5 -98q0 -45 -4 -61h-818q0 -207 116 -319t300 -112q180 0 316 62l26 -80q-143 -68 -352 -68q-227 0 -365.5 138.5t-138.5 353.5zM193 571h710q0 47 -12 99.5t-44 115t-104.5 101.5 t-175.5 39q-117 0 -202.5 -59.5t-122.5 -135.5t-49 -160z" />
<glyph unicode="&#x436;" horiz-adv-x="1366" d="M20 0q18 33 38 76t41.5 100t31.5 80q59 141 142 199.5t223 68.5l-451 459h125l424 -448h41v448h96v-448h39l424 448h125l-449 -459q139 -10 221.5 -68.5t141.5 -199.5q6 -14 46 -113.5t64 -142.5h-102q-27 47 -102 233q-57 133 -142.5 180.5t-224.5 47.5h-41v-461h-96 v461h-43q-137 0 -225 -47t-144 -181q-88 -203 -104 -233h-99z" />
<glyph unicode="&#x437;" horiz-adv-x="870" d="M74 51l39 80q133 -74 268 -74q127 0 207 58.5t80 152.5q0 207 -357 207h-55v82h51q139 0 227.5 57.5t88.5 139.5q0 78 -63.5 126t-158.5 48q-131 0 -247 -78l-37 72q141 86 301 86q121 0 217 -63.5t96 -194.5q0 -84 -71.5 -146.5t-165.5 -79.5v-2q127 -8 207.5 -79.5 t80.5 -178.5q0 -141 -112.5 -215t-292.5 -74q-160 0 -303 76z" />
<glyph unicode="&#x438;" horiz-adv-x="1183" d="M170 0v983h100v-508q0 -227 -8 -358l4 -2q55 82 195 270l448 598h105v-983h-101v524q0 195 9 350h-4q-115 -172 -226 -317l-420 -557h-102z" />
<glyph unicode="&#x439;" horiz-adv-x="1183" d="M170 0v983h100v-508q0 -227 -8 -358l4 -2q55 82 195 270l448 598h105v-983h-101v524q0 195 9 350h-4q-115 -172 -226 -317l-420 -557h-102zM334 1391h94q4 -70 46 -119t114 -49q78 0 120 47t50 121h92q-2 -111 -75 -175.5t-191 -64.5q-133 0 -190.5 72t-59.5 168z" />
<glyph unicode="&#x43a;" horiz-adv-x="993" d="M180 0v983h101v-448h57l489 448h138l-514 -457q145 -12 243.5 -90t175.5 -241q68 -143 103 -195h-107q-41 55 -100 180q-72 150 -173 214.5t-267 64.5h-45v-459h-101z" />
<glyph unicode="&#x43b;" horiz-adv-x="1079" d="M8 76q51 8 92 33q88 53 115 170.5t27 343.5v360h667v-983h-100v899h-467v-268q0 -250 -36 -390.5t-138 -201.5q-80 -47 -156 -47z" />
<glyph unicode="&#x43c;" horiz-adv-x="1267" d="M82 0l82 983h119l241 -594l107 -270h2q92 250 155 397l199 467h123l76 -983h-103l-28 532l-13 171q-8 116 -10 167h-6q-27 -76 -123 -303l-244 -567h-75l-230 565q-37 88 -110 305h-8l-19 -338l-33 -532h-102z" />
<glyph unicode="&#x43d;" horiz-adv-x="1179" d="M170 0v983h100v-414h639v414h101v-983h-101v485h-639v-485h-100z" />
<glyph unicode="&#x43e;" horiz-adv-x="1210" d="M88 481q0 238 152.5 382.5t367.5 144.5q231 0 372.5 -144.5t141.5 -359.5q0 -133 -48 -237.5t-126 -166t-168 -93.5t-184 -32h-2q-219 0 -362.5 143.5t-143.5 362.5zM188 487q0 -197 121 -313.5t289 -116.5h2q172 0 297 119t125 322q0 162 -107.5 295t-306 133 t-309.5 -127.5t-111 -311.5z" />
<glyph unicode="&#x43f;" horiz-adv-x="1171" d="M170 0v983h831v-983h-100v899h-631v-899h-100z" />
<glyph unicode="&#x440;" horiz-adv-x="1255" d="M172 983h96l8 -205h5q127 229 413 230q211 0 342 -144.5t131 -351.5q0 -248 -143 -392.5t-354 -144.5q-121 0 -223.5 51.5t-161.5 149.5h-4v-586h-101v1076q0 176 -8 317zM281 395q0 -37 10 -78q33 -109 135 -184.5t236 -75.5q186 0 295.5 122t109.5 329 q0 174 -107.5 296t-285.5 122q-127 0 -230.5 -71t-144.5 -200q-18 -59 -18 -86v-174z" />
<glyph unicode="&#x441;" horiz-adv-x="1019" d="M88 477q0 242 159 386.5t400 144.5q199 0 299 -70l-37 -82q-115 66 -270 66q-213 0 -332 -123t-119 -310q0 -190 123 -309t312 -119q133 0 286 66l29 -80q-152 -72 -330 -72q-231 0 -375.5 142.5t-144.5 359.5z" />
<glyph unicode="&#x442;" horiz-adv-x="841" d="M20 899v84h801v-84h-350v-899h-100v899h-351z" />
<glyph unicode="&#x443;" horiz-adv-x="983" d="M18 983h109l293 -657q53 -117 80 -207h4q53 145 82 215l274 649h109l-348 -795q-106 -244 -183.5 -367.5t-171.5 -191.5q-98 -72 -180 -88l-27 84q104 31 181 96q115 96 188 265q12 27 12 39q0 14 -14 45z" />
<glyph unicode="&#x444;" horiz-adv-x="1327" d="M88 481q0 238 146.5 375t383.5 150v460h93v-458q244 -12 386 -150.5t142 -355.5q0 -236 -145.5 -373t-382.5 -152v-387h-93v385q-244 12 -387 150.5t-143 355.5zM188 487q0 -182 124 -303t306 -133v881q-186 -12 -308 -136.5t-122 -308.5zM711 51q184 14 306 138t122 307 q0 186 -121 304t-307 132v-881z" />
<glyph unicode="&#x445;" horiz-adv-x="962" d="M20 0l400 504l-375 479h115l188 -242q66 -82 125 -166h4q33 47 127 166l189 242h112l-377 -477l396 -506h-117l-197 250l-139 186h-4q-29 -45 -137 -186l-193 -250h-117z" />
<glyph unicode="&#x446;" horiz-adv-x="1179" d="M170 0v983h100v-899h619v899h100v-899h103l-9 -410h-86l-6 326h-821z" />
<glyph unicode="&#x447;" horiz-adv-x="1087" d="M160 639v344h100v-332q0 -248 268 -248q168 0 289 93v487h101v-999h-101v430h-2q-59 -41 -146 -66.5t-163 -25.5q-154 0 -250 76.5t-96 240.5z" />
<glyph unicode="&#x448;" horiz-adv-x="1517" d="M170 0v983h100v-899h439v899h100v-899h438v899h101v-983h-1178z" />
<glyph unicode="&#x449;" horiz-adv-x="1538" d="M170 0v983h100v-899h439v899h100v-899h438v899h101v-899h102l-8 -410h-86l-6 326h-1180z" />
<glyph unicode="&#x44a;" horiz-adv-x="1171" d="M20 899v84h418v-352q66 10 203 10q61 0 118.5 -8t118 -31.5t104.5 -59.5t72.5 -94.5t28.5 -134.5q0 -125 -77 -202q-121 -121 -426 -121q-59 0 -150.5 5t-93.5 5v899h-316zM436 78q76 -10 176 -10q371 0 371 243q0 137 -108.5 193.5t-266.5 56.5q-68 0 -172 -14v-469z " />
<glyph unicode="&#x44b;" horiz-adv-x="1310" d="M170 0v983h102v-356q76 14 183 14q186 0 314 -78t128 -250q0 -121 -78 -198q-125 -125 -405 -125q-59 0 -150.5 5t-93.5 5zM270 78q76 -10 166 -10q147 0 254 57t107 186q0 72 -31 123t-84 78t-110.5 38t-125.5 11q-90 0 -176 -14v-469zM1036 0v983h101v-983h-101z" />
<glyph unicode="&#x44c;" horiz-adv-x="1026" d="M170 0v983h102v-352q53 10 193 10q473 0 473 -334q0 -115 -78 -192q-125 -125 -446 -125q-59 0 -150.5 5t-93.5 5zM270 78q76 -10 176 -10q66 0 128.5 10t125 35.5t100.5 76t38 121.5q0 76 -38 128.5t-102.5 77t-125 34.5t-130.5 10q-88 0 -172 -14v-469z" />
<glyph unicode="&#x44d;" horiz-adv-x="1030" d="M74 53l30 80q2 -2 22.5 -10l28 -11l30 -11.5t35.5 -12.5t38 -10t45.5 -9t47 -5.5t52.5 -2.5q197 0 312.5 109t126.5 293h-604v82h602q-12 168 -122 272.5t-310 104.5q-150 0 -287 -74l-33 70q154 90 332 90q250 0 391 -152q131 -135 131 -379q0 -219 -147.5 -360.5 t-397.5 -141.5q-173 0 -323 78z" />
<glyph unicode="&#x44e;" horiz-adv-x="1490" d="M170 0v983h96v-446h215q16 201 145.5 336t319.5 135q209 0 333 -142.5t124 -361.5q0 -221 -130 -375t-337 -154q-199 0 -323 134.5t-134 343.5h-213v-453h-96zM580 479q0 -176 97 -301t261 -125h2q170 0 266.5 135.5t96.5 311.5t-97.5 301t-261.5 125q-162 0 -263 -126 t-101 -321z" />
<glyph unicode="&#x44f;" horiz-adv-x="1024" d="M27 0q35 49 67 117q14 29 43 106.5t59.5 125.5t82.5 83q47 31 98 41v4q-121 12 -202 76.5t-81 169.5q0 127 111 197q111 72 336 71q156 0 313 -20v-971h-100v440h-215q-113 0 -174 -41q-45 -29 -76 -78t-62.5 -133t-42.5 -104q-23 -49 -47 -84h-110zM199 717 q0 -72 61.5 -118t131 -61.5t140.5 -15.5h222v379q-115 14 -211 14q-344 1 -344 -198z" />
<glyph unicode="&#x2000;" horiz-adv-x="833" />
<glyph unicode="&#x2001;" horiz-adv-x="1669" />
<glyph unicode="&#x2002;" horiz-adv-x="833" />
<glyph unicode="&#x2003;" horiz-adv-x="1669" />
<glyph unicode="&#x2004;" horiz-adv-x="555" />
<glyph unicode="&#x2005;" horiz-adv-x="415" />
<glyph unicode="&#x2006;" horiz-adv-x="276" />
<glyph unicode="&#x2007;" horiz-adv-x="276" />
<glyph unicode="&#x2008;" horiz-adv-x="206" />
<glyph unicode="&#x2009;" horiz-adv-x="333" />
<glyph unicode="&#x200a;" horiz-adv-x="92" />
<glyph unicode="&#x2010;" horiz-adv-x="614" d="M61 535v88h492v-88h-492z" />
<glyph unicode="&#x2011;" horiz-adv-x="614" d="M61 535v88h492v-88h-492z" />
<glyph unicode="&#x2012;" horiz-adv-x="614" d="M61 535v88h492v-88h-492z" />
<glyph unicode="&#x2013;" horiz-adv-x="1024" d="M61 475v82h902v-82h-902z" />
<glyph unicode="&#x2014;" horiz-adv-x="2048" d="M61 475v82h1926v-82h-1926z" />
<glyph unicode="&#x2018;" horiz-adv-x="358" d="M88 969q27 109 79 253t79 191l69 10q-25 -66 -58.5 -203t-47.5 -231z" />
<glyph unicode="&#x2019;" horiz-adv-x="358" d="M88 969q25 66 58.5 203t48.5 231l120 20q-27 -109 -79 -253t-78 -191z" />
<glyph unicode="&#x201a;" horiz-adv-x="358" d="M43 -258q25 66 58.5 203t48.5 231l120 21q-27 -109 -79 -253.5t-78 -191.5z" />
<glyph unicode="&#x201c;" horiz-adv-x="602" d="M88 969q27 109 79 253t79 191l69 10q-25 -66 -58.5 -203t-47.5 -231zM332 969q27 109 79 253t78 191l70 10q-25 -66 -58.5 -203t-47.5 -231z" />
<glyph unicode="&#x201d;" horiz-adv-x="602" d="M88 969q25 66 58.5 203t48.5 231l120 20q-27 -109 -79 -253t-78 -191zM332 969q25 66 58.5 203t47.5 231l121 20q-27 -109 -79 -253t-79 -191z" />
<glyph unicode="&#x201e;" horiz-adv-x="602" d="M43 -258q25 66 58.5 203t48.5 231l120 21q-27 -109 -79 -253.5t-78 -191.5zM287 -258q25 66 58.5 203t47.5 231l121 21q-27 -109 -79 -253.5t-79 -191.5z" />
<glyph unicode="&#x2026;" horiz-adv-x="2048" d="M256 70q0 41 24.5 68.5t63.5 27.5t62.5 -27.5t23.5 -68.5q0 -39 -24.5 -67t-63.5 -28h-2q-37 0 -61.5 29t-22.5 66zM938 70q0 41 24.5 68.5t63.5 27.5t62.5 -27.5t23.5 -68.5q0 -39 -24.5 -67t-63.5 -28h-2q-37 0 -61.5 29t-22.5 66zM1620 70q0 41 24.5 68.5t63.5 27.5 t62.5 -27.5t23.5 -68.5q0 -39 -24.5 -67t-63.5 -28h-2q-37 0 -61.5 29t-22.5 66z" />
<glyph unicode="&#x202f;" horiz-adv-x="333" />
<glyph unicode="&#x2039;" horiz-adv-x="532" d="M61 516l320 377h106l-319 -377l321 -377h-106z" />
<glyph unicode="&#x203a;" horiz-adv-x="532" d="M43 893h107l321 -377l-321 -377h-105l320 377z" />
<glyph unicode="&#x205f;" horiz-adv-x="415" />
<glyph unicode="&#x20ac;" d="M27 530v76h127v27q0 59 6 115h-133v75h145q39 227 190 373q166 160 404 160q164 0 283 -72l-31 -78q-106 68 -260 68q-188 0 -322 -123q-123 -117 -164 -328h691v-75h-703q-6 -51 -6 -107v-35h709v-76h-703q27 -215 154 -337q135 -131 334 -132q154 0 292 84l27 -71 q-129 -98 -330 -99q-240 0 -399 160q-150 150 -178 395h-133z" />
<glyph unicode="&#x2122;" horiz-adv-x="1302" d="M72 1315v65h485v-65h-205v-492h-76v492h-204zM584 823l49 557h112l144 -360q12 -31 41 -117h4l21.5 63t17.5 50l143 364h113l53 -557h-82l-29 379q-2 43 -6 119h-4q-8 -18 -25.5 -68.5t-23.5 -64.5l-139 -357h-88l-142 367l-45 123h-4q0 -33 -4 -119l-28 -379h-78z" />
<glyph unicode="&#xe000;" horiz-adv-x="985" d="M0 985h985v-985h-985v985z" />
</font>
</defs>
</svg>
